<?xml version="1.0" encoding="UTF-8" standalone="no"?>
<!DOCTYPE svg PUBLIC "-//W3C//DTD SVG 1.1//EN" "http://www.w3.org/Graphics/SVG/1.1/DTD/svg11.dtd">
<svg width="100%" height="100%" viewBox="0 0 2139 988" version="1.1" xmlns="http://www.w3.org/2000/svg" xmlns:xlink="http://www.w3.org/1999/xlink" xml:space="preserve" xmlns:serif="http://www.serif.com/" style="fill-rule:evenodd;clip-rule:evenodd;stroke-linejoin:round;stroke-miterlimit:2;">
    <path d="M533.123,513C540.344,513.335 547.104,514.163 553.811,513.855C559.421,513.597 564.936,511.707 570.553,511.072C584.019,509.549 597.501,508.061 611.015,507.11C619.126,506.538 627.365,506.391 635.45,507.123C654.015,508.804 672.344,511.956 689.774,518.994C694.239,520.796 698.517,523.268 703.133,524.416C706.076,525.149 709.521,524.226 712.677,523.679C727.022,521.19 741.289,518.169 755.697,516.138C765.596,514.742 775.701,513.861 785.677,514.126C819.826,515.033 852.659,521.573 882.644,538.98C899.577,548.809 914.19,561.141 926.41,576.627C941.71,596.015 951.281,617.898 956.754,641.667C958.679,650.028 959.461,658.747 959.858,667.344C960.592,683.237 960.027,699.207 961.163,715.062C962.527,734.088 967.568,752.06 981.068,766.587C983.861,769.592 986.313,772.943 989.287,775.747C997.913,783.883 996.752,791.622 987.678,798.792C977.608,806.748 967.668,814.869 957.637,822.874C951.67,827.636 945.432,832.081 939.678,837.085C930.801,844.806 921.548,843.432 911.746,839.374C897.268,833.379 884.162,825.114 873.015,814.288C860.416,802.052 851.049,787.369 845.048,770.751C840.867,759.174 837.427,747.346 837.068,734.949C836.531,716.372 837.049,697.736 835.771,679.218C835.023,668.368 832.772,657.311 829.204,647.039C824.353,633.079 812.819,625.981 798.23,622.776C798.132,624.548 798.013,625.971 797.982,627.396C797.66,642.313 797.476,657.234 797.006,672.146C796.474,688.983 795.678,705.813 795.017,722.646C794.343,739.812 793.749,756.981 793.015,774.144C792.417,788.148 791.651,802.144 790.988,816.144C790.698,822.247 786.228,826.991 780.068,826.926C764.818,826.768 749.57,826.382 734.323,825.989C725.736,825.768 717.154,825.343 708.569,825.024C699.155,824.675 689.73,824.513 680.33,823.938C674.69,823.593 668.471,819.587 668.911,811.538C669.671,797.647 669.536,783.709 670.001,769.799C670.537,753.794 671.289,737.795 671.999,721.796C672.636,707.458 674.059,693.111 673.815,678.79C673.581,665.036 672.395,651.192 667.018,638.165C661.287,624.279 647.334,614.322 632.449,614.329C632.31,614.622 632.068,614.911 632.056,615.21C631.682,624.791 631.267,634.37 630.99,643.953C630.611,657.036 630.445,670.125 629.996,683.205C629.436,699.541 628.666,715.871 628.015,732.205C627.33,749.369 626.68,766.535 626.011,783.7C625.689,791.957 625.533,800.225 624.976,808.466C624.54,814.906 619.325,821.823 611.694,821.135C601.001,820.172 590.203,820.407 579.455,820.002C563.452,819.397 547.447,818.789 531.454,817.964C523.954,817.577 516.418,817.065 509.019,815.869C504.657,815.163 502.023,811.666 502.084,807.048C502.277,792.464 502.601,777.882 502.991,763.302C503.194,755.716 503.657,748.137 503.978,740.554C504.655,724.556 505.314,708.558 505.982,692.561C506.313,684.644 506.663,676.728 506.978,668.811C507.648,651.981 508.289,635.151 508.967,618.322C509.272,610.737 509.659,603.156 509.972,595.571C510.658,578.905 511.213,562.232 512.037,545.573C512.457,537.075 513.07,528.565 514.121,520.126C514.744,515.117 521.182,511.631 526.208,512.645C528.291,513.065 530.492,512.899 533.123,513Z" style="fill:rgb(179,128,254);fill-rule:nonzero;"/>
    <path d="M134.249,721.354C136.323,708.632 138.087,696.288 140.04,683.973C142.268,669.919 144.789,655.91 146.951,641.845C148.797,629.833 150.139,617.743 152.024,605.738C154.158,592.156 156.789,578.653 158.937,565.073C160.51,555.134 161.492,545.103 163.029,535.158C164.829,523.504 167.035,511.914 168.894,500.268C170.401,490.832 171.571,481.342 173.04,471.899C174.878,460.077 176.952,448.292 178.769,436.467C180.295,426.535 181.533,416.558 183.03,406.62C183.845,401.211 184.824,395.82 185.925,390.462C188.284,378.976 196.721,379.344 204.849,380.408C214.952,381.731 225.009,383.417 235.078,384.99C244.834,386.513 254.577,388.12 264.334,389.637C271.858,390.807 279.399,391.875 286.927,393.024C294.285,394.146 301.637,395.307 308.99,396.462C318.583,397.969 328.165,399.547 337.768,400.981C345.301,402.107 352.876,402.952 360.403,404.118C370.312,405.652 380.191,407.382 390.084,409.019C399.967,410.655 409.844,412.327 419.737,413.892C426.772,415.004 433.803,416.265 440.886,416.927C453.379,418.093 454.976,428.287 453.685,436.727C452.268,445.989 450.57,455.208 449.007,464.448C447.014,476.228 445.004,488.006 443.057,499.793C441.635,508.404 440.499,517.066 438.875,525.636C437.334,533.765 429.513,538.077 421.504,536.332C414.391,534.783 407.093,534.087 399.884,532.967C390.141,531.454 380.407,529.881 370.665,528.361C363.299,527.211 355.924,526.126 348.559,524.974C338.976,523.474 329.407,521.886 319.817,520.433C313.098,519.415 306.355,518.557 299.169,517.566C296.876,533.284 294.687,548.291 292.52,563.151C310.861,567.219 328.398,571.223 345.989,574.972C359.394,577.829 372.881,580.299 386.306,583.064C394.319,584.714 398.75,591.721 397.019,599.398C391.319,624.671 385.384,649.897 380.187,675.274C378.622,682.911 375.896,689.255 368.159,690.631C363.355,691.485 357.979,689.475 352.919,688.458C337.615,685.382 322.337,682.179 307.055,678.995C296.51,676.798 285.976,674.549 275.191,672.272C272.679,688.652 270.182,704.937 267.6,721.773C276.533,723.255 284.92,724.698 293.324,726.026C300.844,727.215 308.387,728.263 315.916,729.399C323.773,730.586 331.622,731.825 339.48,733.004C346.858,734.111 354.25,735.124 361.623,736.263C371.53,737.794 381.449,739.268 391.316,741.033C398.046,742.236 406.155,742.184 408.035,750.813C409.059,755.515 408.338,760.762 407.615,765.647C405.984,776.662 403.842,787.602 401.947,798.579C399.637,811.96 397.345,825.344 395.098,838.735C394.614,841.617 394.31,844.532 394.004,847.441C393.23,854.777 386.98,862.617 377.691,861.046C360.45,858.131 343.147,855.577 325.848,853.021C313.643,851.218 301.381,849.805 289.185,847.949C277.513,846.172 265.912,843.931 254.245,842.116C246.219,840.868 238.128,840.044 230.077,838.947C220.603,837.655 211.128,836.35 201.676,834.903C193.845,833.704 186.051,832.269 178.233,830.98C166.266,829.007 154.294,827.062 142.321,825.124C139.608,824.685 136.892,824.237 134.16,823.948C120.907,822.54 120.022,813.406 121.306,804.268C122.7,794.348 124.429,784.475 126.034,774.585C127.537,765.325 129.154,756.083 130.562,746.809C131.828,738.471 132.878,730.101 134.249,721.354Z" style="fill:rgb(153,86,254);fill-rule:nonzero;"/>
    <path d="M1323.99,607.995C1323.65,613.741 1322.78,619.032 1323.08,624.258C1324,640.443 1324.11,656.864 1331.1,671.984C1334.24,678.782 1338.63,684.723 1345.65,688.366C1349.2,690.206 1352.52,692.636 1355.58,695.22C1358.35,697.553 1358.71,700.715 1357.01,704.055C1345.71,726.186 1334.49,748.36 1323.11,770.453C1319.99,776.516 1316.57,782.322 1309.18,784.438C1303.23,786.143 1298.04,783.699 1292.68,782.252C1271.03,776.408 1251.73,766.132 1234.97,750.888C1217.58,760.769 1198.65,766.607 1179.11,769.68C1165.68,771.792 1151.77,772.635 1138.22,771.774C1113.26,770.188 1089.3,763.543 1067.21,751.578C1053.09,743.935 1040.15,734.572 1028.54,723.211C1015.48,710.425 1004.52,696.207 996.529,679.91C989.591,665.753 984.183,650.871 983.111,634.929C982.336,623.387 981.24,611.699 982.238,600.247C983.709,583.388 988.49,567.157 994.866,551.354C1004.24,528.115 1018.36,508.27 1036.92,491.735C1054.11,476.414 1074.32,466.512 1096.74,460.938C1114.2,456.598 1131.97,456.06 1149.61,457.235C1165.12,458.269 1180.67,460.72 1195.33,466.703C1198.87,468.148 1202.46,469.566 1206.15,470.506C1207.82,470.93 1210.09,470.671 1211.58,469.825C1216.98,466.754 1222.51,465.641 1228.67,466.763C1232.84,467.521 1237.12,467.714 1241.36,468.012C1251.35,468.712 1261.35,469.139 1271.32,470.017C1284.48,471.176 1297.6,472.694 1310.75,473.988C1315.31,474.437 1319.88,474.745 1324.46,475.001C1333.83,475.528 1339.91,483.824 1338.14,492.838C1336.64,500.476 1336.1,508.297 1334.98,516.014C1333.84,523.851 1332.42,531.65 1331.26,539.484C1330.4,545.268 1329.75,551.084 1329.01,556.885C1327.7,567.19 1326.22,577.477 1325.14,587.805C1324.45,594.342 1324.35,600.94 1323.99,607.995M1185.46,670.021C1189.5,668.665 1193.54,667.308 1197.45,665.999C1196.58,655.832 1195.09,646.252 1195.09,636.672C1195.1,616.483 1195.91,596.294 1196.31,576.103C1196.33,574.952 1195.83,573.543 1195.09,572.661C1183.46,558.821 1168.04,554.615 1151,557.207C1136.71,559.38 1125.9,567.998 1118.04,580.06C1108.33,594.947 1104.87,611.126 1107.93,628.767C1110.36,642.776 1117.22,654.413 1128.4,662.505C1145.45,674.851 1164.77,675.742 1185.46,670.021Z" style="fill:rgb(153,86,254);fill-rule:nonzero;"/>
    <path d="M1416.7,619.787C1427.52,605.177 1439.72,592.505 1454.36,582.213C1474.23,568.245 1496.49,560.105 1520.18,556.25C1532.14,554.305 1544.52,553.623 1556.62,554.199C1584.27,555.514 1611.09,561.455 1636.63,572.314C1655.46,580.316 1673.04,590.383 1688.64,603.909C1696.02,610.311 1702.46,617.264 1707.85,625.331C1714.39,635.116 1713.85,640.054 1706,648.545C1693.23,662.364 1680.72,676.417 1668.09,690.37C1665.24,693.53 1662.9,697.563 1659.41,699.667C1652.01,704.12 1646.12,705.678 1638.47,694.984C1625.69,677.115 1607.37,668.045 1586.77,663.152C1575.3,660.43 1563.58,661.444 1552.72,666.206C1542.66,670.616 1534.91,678.081 1529.14,687.498C1520.33,701.874 1515.33,717.388 1517.13,734.312C1518.15,743.98 1522.02,752.774 1528.11,760.769C1540.37,776.892 1557.52,784.279 1576.47,786.639C1592.19,788.598 1608.32,787.596 1623.77,782.606C1629.87,780.635 1635.92,778.504 1642.01,776.491C1657.31,771.429 1661.93,778.578 1663.96,791.687C1665.6,802.274 1667.46,812.838 1668.68,823.475C1669.59,831.31 1670.37,839.3 1669.82,847.124C1669.12,857.145 1661.6,862.868 1653.09,865.753C1636.38,871.418 1619.51,877.019 1602.27,880.53C1589.66,883.099 1576.36,882.66 1563.35,882.907C1536.8,883.411 1511.55,877.257 1487.31,866.698C1469.53,858.954 1453.67,848.386 1438.94,835.664C1419.92,819.235 1406.23,799.263 1395.98,776.637C1390.85,765.282 1387.33,753.393 1386.09,740.984C1385.06,730.689 1383.62,720.264 1384.25,710.012C1385.32,692.58 1388.49,675.307 1396.07,659.362C1402.4,646.039 1409.61,633.133 1416.7,619.787Z" style="fill:rgb(179,128,254);fill-rule:nonzero;"/>
    <path d="M1924.23,599.013C1919.76,600.966 1915.33,602.385 1911.71,604.944C1903.95,610.44 1902.44,620.478 1908.52,628.79C1915.22,637.957 1922.57,646.667 1929.96,655.305C1942.6,670.097 1955.4,684.79 1962.96,703.033C1973,727.269 1971.64,750.226 1954.96,771.523C1939.63,791.107 1919.01,802.831 1896.52,811.983C1879.63,818.859 1862.06,823.508 1844.21,826.839C1834.31,828.687 1824.12,829.048 1814.05,829.92C1808.13,830.432 1802.19,830.947 1796.26,830.871C1791.76,830.814 1787.12,830.335 1782.79,829.145C1775.13,827.044 1773.44,819.9 1771.04,813.586C1764.08,795.278 1757.61,776.768 1750.13,758.673C1745.27,746.904 1752.24,743.402 1761.07,743.107C1773.16,742.704 1785.11,741.612 1795.99,735.94C1804.04,731.74 1810.69,726.103 1812.38,716.219C1813.45,709.975 1810.32,705.216 1807.18,700.917C1801.14,692.648 1794.36,684.893 1787.6,677.181C1774.23,661.943 1761.52,646.208 1754.48,626.942C1746.05,603.894 1748.79,581.835 1763.55,562.105C1771.56,551.397 1782.4,543.503 1793.88,536.528C1810.24,526.578 1828.05,520.095 1846.41,515.436C1859.06,512.224 1872.18,510.517 1885.2,509.193C1896.53,508.041 1908.01,508.201 1919.42,508.093C1928.96,508.003 1936.42,510.617 1940.17,521.092C1947.57,541.74 1955.97,562.027 1964.01,582.443C1966.77,589.447 1963.7,595.524 1953.79,596.029C1945.13,596.47 1936.5,597.283 1927.86,598.008C1926.77,598.1 1925.72,598.654 1924.23,599.013Z" style="fill:rgb(153,86,254);fill-rule:nonzero;"/>
    <path d="M222.627,260.228C218.168,253.33 215.528,245.991 215.183,238.261C214.718,227.812 217.232,217.58 224.625,210.005C258.062,175.743 291.743,141.714 325.683,107.95C332.027,101.638 340.52,98.657 349.804,97.962C365.246,96.806 377.032,103.11 387.567,113.839C414.52,141.287 441.894,168.321 468.973,195.646C474.862,201.589 481.149,207.462 485.612,214.42C492.509,225.172 492.678,237.18 488.408,249.26C485.738,256.812 480.914,262.757 475.352,268.302C444.321,299.237 413.363,330.244 382.319,361.165C370.646,372.791 356.528,375.408 340.982,371.504C332.15,369.287 325.533,363.765 319.402,357.076C312.482,349.526 304.443,343.014 297.165,335.775C273.42,312.158 249.791,288.423 226.153,264.699C224.91,263.452 223.986,261.887 222.627,260.228M364.012,270.239C363.683,261.217 363.353,252.194 363.005,242.653C340.358,251.517 318.351,252.313 296.203,243.003C295.764,248.247 295.149,253.156 294.982,258.079C294.539,271.171 294.18,284.268 294.088,297.366C294.075,299.191 295.279,301.67 296.733,302.754C304.679,308.679 314.329,310.316 323.702,310.779C337.087,311.44 350.035,308.232 362.258,302.392C365.336,300.921 366.275,298.914 366.042,295.756C365.618,290.005 365.43,284.236 365.021,278.483C364.848,276.041 364.367,273.621 364.012,270.239M296.385,213.037C289.971,215.038 283.555,217.034 277.147,219.053C276.693,219.196 276.278,219.484 275.868,219.743C267.587,224.969 271.06,230.18 276.729,233.202C290.434,240.507 305.627,241.943 320.504,242.64C334.669,243.302 349.048,241.612 363.18,239.778C370.166,238.871 376.994,235.735 383.551,232.833C389.896,230.024 391.225,224.126 386.466,221.097C377.681,215.504 367.713,213.255 357.175,212.062L357.175,221.541C359.069,222.109 360.979,222.457 362.664,223.272C363.61,223.729 364.87,225.05 364.766,225.814C364.614,226.923 363.541,228.476 362.534,228.789C359.566,229.711 356.438,230.117 352.78,230.842C353.396,218.03 353.987,205.738 354.601,192.969C351.994,192.969 349.347,193.095 346.716,192.939C343.054,192.723 340.342,193.284 338.273,197.121C335.979,201.376 332.447,204.962 329.276,209.069C322.773,200.553 318.991,187.998 304.095,193.953C304.773,205.855 305.469,218.092 306.212,231.138C301.723,229.54 298.108,228.253 294.493,226.966C294.569,226.396 294.645,225.825 294.721,225.254C296.781,224.225 298.84,223.196 300.705,222.265L300.705,211.674C299.289,212.217 298.272,212.606 296.385,213.037M453.609,255.106C419.512,221.522 385.416,187.937 351.25,154.283C348.987,157.027 346.663,159.845 344.04,163.026C351.87,170.311 359.733,177.416 367.357,184.768C381.552,198.458 395.677,212.223 409.701,226.088C422.52,238.761 435.166,251.608 448.461,264.952C450.657,261.24 452.271,258.511 453.609,255.106M332.692,135.012C338.79,133.376 337.385,139.3 339.76,141.751C339.931,139.684 340.103,137.618 340.296,135.292C342.917,135.086 345.4,134.891 347.883,134.696C347.938,134.17 347.992,133.644 348.047,133.118C345.446,132.52 342.845,131.922 340.291,131.334C340.043,129.163 339.81,127.117 339.577,125.071C339.161,125.118 338.744,125.165 338.328,125.211C338.104,127.404 337.88,129.596 337.632,132.022C335.878,132.022 334.319,131.734 332.98,132.152C332.373,132.341 332.204,133.932 332.692,135.012M335.164,184.017C336.362,183.667 337.56,183.317 338.758,182.967C338.94,182.465 339.122,181.964 339.303,181.463C333.517,181.874 329.669,180.19 330.813,173.112C330.323,173.451 329.834,173.79 329.344,174.13C329.139,176.301 328.934,178.473 328.718,180.768C326.39,180.961 324.303,181.134 322.216,181.307C321.73,181.833 321.245,182.359 320.76,182.885C326.082,183.627 330.746,184.929 329.076,191.462C332.77,189.346 328.22,183.34 335.164,184.017M385.099,156.948C388.094,156.978 391.092,157.077 394.082,156.979C394.679,156.959 395.25,156.188 395.834,155.763C395.242,155.185 394.671,154.135 394.056,154.108C390.459,153.949 386.852,154.03 382.464,154.03C383.409,155.379 383.846,156.001 385.099,156.948Z" style="fill:rgb(97,96,210);fill-rule:nonzero;"/>
    <path d="M1331.97,312.9C1331.64,330.155 1331.36,346.925 1330.95,363.692C1330.73,372.963 1330.3,382.229 1329.95,391.497C1329.78,395.877 1326.68,398.918 1322.15,398.937C1306.98,398.998 1291.82,399.036 1276.65,398.964C1271.18,398.937 1267.69,393.9 1268.68,388.419C1269.42,384.251 1269.69,379.985 1270,375.75C1270.72,365.776 1271.2,355.783 1272.05,345.819C1272.85,336.383 1274.02,326.978 1274.95,317.552C1275.41,312.988 1275.72,308.409 1276.04,303.833C1277.01,289.946 1277.89,276.051 1278.92,262.169C1279.83,250.104 1280.86,238.048 1281.92,225.996C1282.52,219.18 1283.23,212.373 1283.98,205.571C1284.43,201.436 1289.34,197.447 1293.27,197.96C1298.26,198.611 1303.22,199.529 1308.22,199.972C1317.18,200.765 1326.17,201.304 1335.14,201.923C1343.31,202.487 1349.48,206.32 1353.03,213.654C1361.52,231.182 1370,248.723 1378.07,266.447C1385.33,282.383 1392.02,298.578 1399,314.638C1399.67,316.187 1400.67,317.597 1401.51,319.072C1401.97,319.03 1402.42,318.988 1402.88,318.947C1403.92,313.539 1405.03,308.144 1405.99,302.723C1407.88,292.081 1409.7,281.426 1411.53,270.774C1413.36,260.126 1415.19,249.478 1416.98,238.824C1418.05,232.458 1418.84,226.039 1420.13,219.718C1421.04,215.261 1425.56,213.741 1431.55,215.026C1444.28,217.76 1457.04,220.376 1469.82,222.916C1475.68,224.081 1478.15,227.226 1476.98,233.619C1474.9,245 1472.38,256.3 1470.2,267.665C1467.72,280.629 1465.5,293.644 1463.01,306.606C1459.87,322.89 1456.55,339.138 1453.35,355.41C1450.55,369.644 1447.85,383.898 1445.03,398.128C1443.81,404.287 1442.68,410.49 1440.96,416.518C1439.62,421.229 1434.97,420.458 1431.81,419.876C1418.08,417.345 1404.47,414.115 1390.76,411.411C1383.68,410.015 1383.01,403.806 1381.07,398.893C1370.01,371.013 1359.36,342.968 1348.33,315.075C1344.51,305.399 1339.99,295.996 1335.76,286.479C1335.5,285.883 1335.02,285.38 1333.73,283.504C1332.9,286.91 1332.05,288.905 1332,290.918C1331.84,298.08 1331.96,305.248 1331.97,312.9Z" style="fill:rgb(96,95,211);fill-rule:nonzero;"/>
    <path d="M1094.77,259.735C1076.26,270.251 1070.14,292.015 1074.26,310.649C1077.47,325.123 1084.36,337.312 1096.85,345.098C1114.66,356.195 1139.01,353.039 1153.05,336.167C1156.48,332.045 1158.05,326.213 1159.85,320.955C1161.12,317.253 1157.63,314.339 1153.89,315.582C1146.4,318.067 1138.97,320.681 1131.49,323.164C1126.56,324.8 1123.62,323.618 1122.07,318.848C1118.9,309.105 1115.71,299.339 1113.34,289.389C1112.87,287.42 1115.49,283.32 1117.64,282.373C1124.98,279.139 1132.73,276.794 1140.37,274.255C1152.9,270.093 1165.53,266.225 1178,261.902C1192.61,256.84 1202.51,263.652 1207.89,274.884C1213.87,287.37 1217.26,300.846 1216.91,314.725C1216.49,331.429 1211.91,346.881 1202.57,361.271C1192.39,376.94 1178.87,388.353 1162.81,396.928C1151.43,403.006 1139.07,406.473 1126.1,408.12C1102.31,411.14 1080.11,406.814 1059.41,395.01C1043.72,386.062 1030.84,374.001 1023.03,357.49C1018.19,347.258 1013.33,336.77 1010.62,325.865C1007.19,312.064 1006.74,297.806 1009.66,283.514C1013.97,262.446 1024.74,245.25 1040.43,231.17C1056.22,216.999 1074.47,207.046 1094.94,200.779C1107.02,197.082 1119.1,196.955 1131.36,197.037C1137.69,197.079 1140.59,200.667 1141.03,207.08C1141.8,218.167 1143.15,229.212 1143.96,240.295C1144.24,244.046 1145.18,248.638 1140.14,250.291C1138.37,250.872 1136.16,250.067 1134.15,249.989C1122.42,249.534 1111.16,251.353 1100.64,256.849C1098.82,257.802 1096.92,258.611 1094.77,259.735Z" style="fill:rgb(136,136,221);fill-rule:nonzero;"/>
    <path d="M1729.72,398.671C1725.13,415.547 1720.34,431.942 1709.67,445.727C1697.24,461.785 1681,472.099 1661.26,477.044C1650.16,479.825 1638.82,481.04 1627.59,479.879C1607.29,477.776 1588.43,471.341 1571.95,458.585C1559.07,448.609 1549.93,436.026 1544.51,420.898C1542.37,414.912 1541.65,408.291 1541.09,401.888C1539.56,384.38 1544.27,367.601 1547.63,350.662C1550.59,335.772 1553.14,320.801 1556,305.889C1557.73,296.859 1559.69,287.875 1561.54,278.869C1562.35,274.94 1563.04,270.983 1563.97,267.082C1565.26,261.644 1567.32,260.047 1572.53,261.032C1587.73,263.902 1602.89,266.95 1618.05,270.013C1622,270.812 1623.89,274.105 1622.97,279.279C1621.14,289.611 1618.99,299.885 1616.99,310.187C1614.65,322.235 1612.39,334.297 1610.01,346.337C1607.61,358.515 1605.15,370.684 1602.63,382.838C1598.68,401.85 1607.74,416.84 1627.55,421.101C1646.59,425.195 1663.25,411.725 1667.13,394.395C1670.55,379.193 1675.58,364.362 1679.23,349.206C1683.53,331.362 1687.22,313.369 1690.94,295.391C1692.77,286.536 1694.62,284.945 1703.31,287.015C1717.08,290.291 1730.81,293.689 1744.52,297.179C1750.58,298.722 1752.46,302.296 1750.99,309.118C1748.37,321.248 1745.77,333.381 1742.94,345.464C1739.07,362.041 1735,378.573 1731,395.119C1730.73,396.205 1730.3,397.249 1729.72,398.671Z" style="fill:rgb(136,136,221);fill-rule:nonzero;"/>
    <path d="M587.209,144.011C588.714,140.308 590.301,136.737 590.873,133.01C592.478,122.56 593.608,112.038 595.034,101.56C596.087,93.821 597.311,86.105 598.599,77.435C600.116,79.208 601.386,80.616 602.574,82.091C612.164,93.992 621.723,105.92 631.33,117.808C633.792,120.855 636.196,123.997 639.018,126.685C640.348,127.951 642.548,128.652 644.449,128.916C659.756,131.034 675.091,132.941 690.404,135.017C695.149,135.659 699.851,136.619 705.037,137.515C691.857,147.959 678.91,158.195 665.993,168.469C662.302,171.405 658.449,174.208 655.169,177.559C653.777,178.981 653.333,181.613 653.035,183.775C651.589,194.251 650.46,204.772 648.982,215.243C647.699,224.327 646.099,233.366 644.513,243.21C638.783,236.281 633.352,229.847 628.07,223.293C620.528,213.939 613.405,204.221 605.419,195.269C603.174,192.752 598.638,191.727 594.972,191.135C584.528,189.447 573.982,188.398 563.493,186.976C555.361,185.873 547.255,184.587 538.494,183.288C554.887,169.987 570.857,157.029 587.209,144.011Z" style="fill:rgb(179,129,253);fill-rule:nonzero;"/>
    <path d="M1397.16,87.048C1399.63,87.025 1401.63,87.004 1403.63,86.982C1410.82,86.901 1413.02,89.484 1411.96,96.545C1411.5,99.614 1411.22,102.715 1410.96,105.811C1410.29,113.998 1409.66,122.189 1409.04,130.379C1408.96,131.373 1409.01,132.376 1409.01,133.375C1409.02,143.052 1408.93,152.731 1409.11,162.405C1409.19,166.522 1407.38,168.193 1403.48,167.981C1397.89,167.677 1392.25,167.656 1386.74,166.803C1385.3,166.58 1383.16,163.671 1383.24,162.088C1383.64,153.781 1384.63,145.5 1385.47,137.217C1386,132.022 1386.64,126.839 1386.37,121.293C1385.8,122.106 1385.14,122.868 1384.69,123.742C1381.1,130.797 1377.27,137.748 1374.11,144.989C1372.22,149.297 1369.03,149.83 1365.17,149.987C1360.78,150.167 1356.85,150.131 1354.49,145.166C1350.64,137.067 1346.26,129.225 1341.16,121.531C1341.45,125.742 1341.61,129.966 1342.04,134.162C1342.95,143.052 1343.95,151.934 1345.01,160.808C1345.56,165.462 1343.08,166.855 1338.99,167.02C1334.24,167.211 1329.49,167.497 1324.77,167.979C1321.32,168.33 1320.1,166.799 1319.97,163.595C1319.72,157.683 1319.21,151.783 1318.99,145.871C1318.61,135.309 1318.42,124.741 1318.06,114.178C1317.81,106.77 1317.54,99.357 1316.99,91.967C1316.72,88.276 1318.25,87.024 1321.67,86.918C1327.07,86.751 1332.46,86.112 1337.86,86.139C1342.84,86.164 1344.75,90.544 1346.97,93.951C1352.74,102.809 1358.23,111.855 1364.25,121.501C1367.59,116.086 1370.73,110.795 1374.08,105.639C1377.58,100.247 1381.39,95.061 1384.85,89.642C1388.02,84.669 1392.64,87.394 1397.16,87.048Z" style="fill:rgb(153,89,250);fill-rule:nonzero;"/>
    <path d="M767.785,353.17C773.952,360.15 772.327,367.486 768.856,374.247C764.459,382.809 759.104,390.879 754.062,399.33C754.074,399.336 754.993,399.647 755.749,400.186C764.664,406.552 764.83,408.416 757.203,416.311C754.541,419.067 751.785,421.733 749.156,424.519C744.999,428.925 744.108,428.677 739.103,424.548C730.767,417.672 731.265,417.785 722.316,423.127C712.033,429.266 700.972,433.781 688.68,433.751C687.106,433.747 684.885,432.485 684.086,431.139C681.61,426.966 679.717,422.451 677.515,418.11C676.112,415.345 677.207,413.598 679.856,413.055C690.92,410.788 700.681,405.762 709.351,399.678C706.182,395.703 702.946,391.643 699.264,387.024C702.986,383.647 707.302,379.411 712.022,375.686C713.115,374.824 715.801,375.214 717.383,375.894C721.199,377.534 724.795,379.685 728.627,381.708C731.165,377.864 733.721,373.991 736.794,369.336C723.073,366.439 710.131,363.706 696.588,360.847C697.783,353.901 698.747,347.225 700.235,340.668C700.495,339.523 703.152,337.907 704.378,338.149C723.592,341.946 742.762,345.965 761.908,350.09C763.884,350.515 765.644,351.941 767.785,353.17Z" style="fill:rgb(98,97,210);fill-rule:nonzero;"/>
    <path d="M576.917,340.868C575.603,335.818 574.372,331.161 572.974,326.556C571.255,320.896 571.559,321.125 577.193,319.922C587.849,317.647 598.45,314.968 608.861,311.765C613.14,310.449 615.271,311.222 615.92,315.297C616.707,320.237 619.846,322.206 624.186,323.653C633.926,326.898 643.565,330.45 653.209,333.978C660.231,336.547 662.686,345.061 659.118,351.575C652.334,363.959 642.194,372.699 630.487,380.102C615.132,389.812 598.527,396.484 581.015,400.925C577.209,401.89 573.286,401.29 571.114,396.778C569.17,392.739 566.485,389.056 564.567,385.007C564.145,384.117 565.217,381.559 566.211,381.105C575.558,376.831 585.384,373.485 594.387,368.609C604.503,363.13 613.911,356.345 623.4,349.361C616.445,344.752 609.525,342.301 601.614,343.182C595.108,343.906 588.58,344.658 582.051,344.779C580.365,344.81 578.635,342.513 576.917,340.868Z" style="fill:rgb(98,97,210);fill-rule:nonzero;"/>
    <path d="M891.734,187.996C883.633,191.469 877.109,190.072 871.28,183.836C865.259,177.396 859.231,170.853 852.453,165.271C848.395,161.928 843.058,159.792 837.952,158.252C836.078,157.687 832.715,159.908 830.925,161.734C828.387,164.324 826.677,167.725 825.948,169.316C821.272,165.357 816.778,161.152 811.869,157.506C806.709,153.673 804.484,154.069 800.045,158.479C794.615,163.875 788.947,169.064 783.866,174.773C777.391,182.05 766.357,181.175 762.058,172.586C759.834,168.142 760.624,159.383 766.833,154.032C769.087,156.733 771.192,159.575 773.626,162.099C777.275,165.882 781.199,164.805 784.584,161.782C790.617,156.394 796.284,150.594 802.345,145.237C806.97,141.149 812.277,138.454 818.651,141.091C820.219,141.74 821.623,143.074 822.77,144.385C824.618,146.496 826.19,148.849 828.057,151.338C835.819,140.371 847.986,137.116 857.493,146.143C865.218,153.478 872.582,161.191 880.152,168.69C885.508,173.997 891.328,175.671 895.734,172.605C899.267,170.147 902.25,166.898 905.458,164.016C909.606,169.333 902.736,182.295 891.734,187.996Z" style="fill:rgb(154,91,247);fill-rule:nonzero;"/>
    <path d="M1505.72,166.269C1502.91,163.039 1500.38,160.057 1497.9,157.153C1492.14,161.007 1486.7,164.651 1481.07,168.413C1475.76,163.973 1470.68,159.736 1465.15,155.118C1471.17,149.559 1476.67,144.467 1482.31,139.257C1478.23,134.331 1474.51,129.614 1470.54,125.116C1468.23,122.503 1468.34,120.709 1471.48,119.089C1475.72,116.896 1480.04,114.803 1484.11,112.318C1487.08,110.505 1489.05,111 1491.15,113.596C1493.81,116.877 1496.78,119.913 1500.21,123.722C1503.22,120.549 1505.81,117.27 1508.99,114.718C1510.41,113.571 1513.66,112.871 1514.95,113.708C1519.69,116.764 1524.2,120.312 1528.22,124.262C1529.05,125.086 1528.04,128.877 1526.82,130.498C1523.67,134.677 1519.93,138.406 1516.38,142.356C1520.08,146.898 1523.68,151.624 1527.62,156.053C1530.24,159.002 1528.42,160.583 1526.2,161.909C1522.07,164.38 1517.85,166.743 1513.51,168.837C1510.52,170.279 1507.97,169.008 1505.72,166.269Z" style="fill:rgb(154,90,249);fill-rule:nonzero;"/>
    <path d="M871.093,414.942C875.059,415.973 878.715,416.701 882.098,418.092C883.388,418.623 885.078,420.901 884.835,421.992C883.443,428.229 881.775,434.438 879.613,440.445C879.05,442.01 876.049,444.125 874.744,443.783C850.426,437.419 826.232,430.576 801.915,424.206C796.596,422.813 794.808,420.922 796.845,415.471C798.68,410.564 799.794,405.361 800.912,400.22C801.637,396.882 803.862,396.484 806.332,397.143C826.138,402.43 845.91,407.841 865.685,413.239C867.374,413.7 869.013,414.344 871.093,414.942Z" style="fill:rgb(98,97,210);fill-rule:nonzero;"/>
    <path d="M516.775,908.268C516.278,904.448 516.26,900.954 515.781,897.524C515.631,896.448 514.239,895.545 512.989,894.055C512.311,895.72 512.093,896.016 512.081,896.32C511.571,909.205 511.574,909.205 497.054,908.811L497.054,895.309C494.263,895.099 491.868,894.918 489.247,894.721L489.247,883.225C491.572,883.105 493.97,882.98 496.647,882.842L496.647,872.501C488.278,871.149 488.278,871.149 489.411,860.623C496.384,859.333 496.384,859.333 497.27,847.378L510.724,847.378C510.961,851.48 511.197,855.567 511.434,859.661C517.925,860.39 517.925,860.39 519.461,847.252L532.914,847.252L532.914,859.838C535.182,859.942 536.805,860.016 538.436,860.091C540.522,869.729 539.63,871.595 532.295,872.248L532.295,882.442C539.441,883.712 539.441,883.712 538.767,894.749L531.516,894.749C530.874,899.599 530.297,903.958 529.679,908.618C525.549,908.618 521.313,908.618 516.775,908.268M511.974,878.429C512.056,879.873 512.138,881.316 512.239,883.076C513.988,882.934 515.379,882.82 516.655,882.716C517.065,879.106 517.432,875.884 517.839,872.299L511.975,872.299C511.975,874.233 511.975,875.868 511.974,878.429Z" style="fill:rgb(97,96,208);fill-rule:nonzero;"/>
    <path d="M633.944,882.455C636.136,875.489 638.382,868.698 646.119,867.063C651.024,866.027 656.209,866.054 661.267,866.075C666.853,866.098 672.439,866.932 678.021,866.886C681.593,866.856 683.262,867.644 683.01,871.553C682.227,883.693 682.416,895.95 680.802,907.971C678.471,925.336 664.292,931.9 649.21,929.605C648.742,929.533 648.305,929.246 647.856,929.056C645.594,928.095 641.479,927.22 641.429,926.155C641.298,923.356 642.788,920.408 643.989,917.677C644.247,917.09 646.038,916.888 647.081,916.981C655.981,917.778 659.888,915.753 662.672,908.931C658.89,908.651 654.917,908.86 651.199,907.987C640.393,905.45 633.965,896.916 634.008,885.892C634.012,884.893 633.964,883.894 633.944,882.455M664.922,886.595C664.26,884.363 666.46,881.474 662.596,879.91C659.061,878.48 655.162,878.508 653.838,881.239C652.352,884.307 652.558,888.734 653.481,892.181C653.879,893.669 657.891,894.874 660.321,894.994C665.738,895.26 665.046,891.048 664.922,886.595Z" style="fill:rgb(99,98,209);fill-rule:nonzero;"/>
    <path d="M1048.03,845.047C1043.28,848.714 1038.9,852.365 1034.5,855.992C1034.02,856.389 1033.17,857.069 1032.93,856.92C1028.44,854.039 1024,851.069 1019.64,847.987C1019.54,847.92 1020.33,846.139 1021.02,845.49C1024.86,841.887 1029.06,838.634 1032.56,834.736C1034.07,833.046 1035.16,829.915 1034.76,827.755C1032.87,817.637 1030.32,807.644 1028.23,797.561C1028.02,796.552 1029.19,794.303 1029.92,794.207C1034.6,793.595 1039.35,793.136 1044.05,793.332C1045.1,793.376 1046.55,796.115 1046.92,797.811C1048.21,803.629 1049.09,809.538 1050.18,815.401C1050.26,815.808 1050.81,816.126 1051.26,816.624C1056.73,810.864 1062.19,805.11 1068.02,798.967C1072.54,802.952 1076.31,806.047 1079.73,809.484C1080.44,810.201 1080.47,812.613 1079.82,813.499C1077.48,816.645 1074.88,819.641 1072.07,822.383C1064.26,830.013 1056.29,837.487 1048.03,845.047Z" style="fill:rgb(137,137,220);fill-rule:nonzero;"/>
    <path d="M740.295,897.8C738.821,902.118 737.271,906.226 735.201,910.052C734.874,910.657 731.797,910.57 730.671,909.804C726.47,906.946 722.3,906.359 717.477,908.072C707.054,911.774 692.275,904.502 689.26,891.571C687.011,881.927 692.116,868.746 705.42,865.187C708.066,864.479 711.057,864.771 713.859,864.988C720.469,865.502 727.05,866.405 733.663,866.847C738.221,867.152 738.778,868.156 738.194,872.834C737.422,879.019 737.121,885.299 737.189,891.532C737.211,893.531 739.044,895.509 740.295,897.8M719.031,887.51C718.828,884.443 720.348,880.155 715.694,879.639C713.31,879.375 709.327,880.801 708.458,882.611C707.195,885.242 707.054,889.483 708.411,891.949C709.426,893.795 713.602,894.748 716.297,894.614C719.905,894.436 718.965,890.914 719.031,887.51Z" style="fill:rgb(99,98,209);fill-rule:nonzero;"/>
    <path d="M2002.29,830.296C1997.52,839.088 1993.4,847.815 1988.28,855.91C1985.27,860.666 1979.96,859.735 1973.88,855.005C1978.06,843.967 1982.24,833.239 1986.14,822.41C1986.99,820.04 1986.85,817.311 1987.16,814.747C1984.69,815.406 1981.79,815.464 1979.83,816.853C1976.09,819.508 1972.68,822.73 1969.52,826.072C1966.26,829.503 1963.75,830.619 1959.3,827.209C1951.84,821.488 1951.74,822.064 1957.72,814.677C1961.34,810.189 1964.18,805.062 1967.75,799.65C1974.59,806.609 1980.6,799.839 1987.06,798.399C1989.83,797.779 1992.4,796.265 1995.14,795.423C2000.96,793.637 2004.64,796.505 2006.09,802.441C2008.13,810.781 2005.63,818.476 2003.87,826.333C2003.58,827.582 2002.98,828.757 2002.29,830.296Z" style="fill:rgb(179,131,249);fill-rule:nonzero;"/>
    <path d="M1724.7,872.285C1719.83,875.709 1714.84,879.011 1709.61,881.889C1706.45,883.631 1702.92,884.716 1699.63,886.904L1708.76,886.904L1708.76,922.788L1692.18,922.788L1692.18,889.56C1685.78,891.257 1680.02,892.596 1674.4,894.346C1671.35,895.294 1669.65,895.412 1668.74,891.619C1667.93,888.25 1666.05,885.138 1664.75,882.145C1681.82,874.053 1698.51,866.141 1715.92,857.886C1718.66,862.41 1721.57,867.197 1724.7,872.285Z" style="fill:rgb(179,130,250);fill-rule:nonzero;"/>
    <path d="M768.172,880.542C767.593,883.572 767.194,886.281 766.998,889.004C766.584,894.754 766.399,900.524 765.811,906.255C765.706,907.275 764.069,908.985 763.212,908.942C758.338,908.695 753.486,908.014 747.803,907.389C748.487,894.087 749.194,880.336 749.933,865.976C759.352,865.976 768.587,864.873 777.425,866.273C787.069,867.802 795.747,876.496 795.052,887.837C794.694,893.676 796.524,899.039 801.444,904.033C800.813,904.363 799.978,904.602 799.412,905.129C795.931,908.371 792.015,912.833 787.274,910.518C781.68,907.785 776.881,903.098 777.005,895.714C777.03,894.217 777.058,892.717 777.004,891.221C776.787,885.141 774.442,882.148 768.172,880.542Z" style="fill:rgb(98,97,209);fill-rule:nonzero;"/>
    <path d="M1153.29,861.99C1140,859.982 1135.11,853.647 1135.22,843.48C1135.31,835.347 1137.67,827.206 1139.39,819.148C1139.83,817.111 1141.07,815.092 1144.47,816.568C1147.33,817.809 1150.82,817.682 1154.04,818.002C1157.1,818.306 1157.04,819.544 1156.5,822.342C1155.25,828.715 1154.75,835.239 1154.08,841.716C1153.7,845.362 1155.36,847.558 1159.14,848.055C1162.98,848.56 1163.4,846.239 1164.13,843.185C1165.89,835.879 1168.27,828.721 1170.52,821.119C1176.16,822.587 1181.36,823.938 1187.83,825.621C1184.19,838.914 1180.54,852.304 1176.89,865.667C1168.96,864.407 1161.35,863.198 1153.29,861.99Z" style="fill:rgb(138,137,219);fill-rule:nonzero;"/>
    <path d="M562.232,910.002C543.96,905.814 538.508,886.89 549.168,872.771C551.727,869.381 556.603,867.247 560.839,865.713C572.117,861.628 585.041,866.956 590.048,877.002C596.291,889.529 591.207,900.321 580.118,907.03C574.667,910.328 568.762,910.663 562.232,910.002M568.51,879.084C562.936,879.541 561.037,881.695 561.128,887.453C561.205,892.312 563.842,895.646 567.926,896.048C571.276,896.378 575.674,892.936 576.006,889.725C576.737,882.661 575.248,880.282 568.51,879.084Z" style="fill:rgb(99,98,209);fill-rule:nonzero;"/>
    <path d="M1109.09,850.983C1101.94,852.792 1095.96,850.782 1090.57,847.012C1084.96,843.092 1082.1,837.289 1080.97,830.665C1079.58,822.442 1088.4,809.374 1096.89,807.011C1106.89,804.226 1116.57,806.325 1123.48,813.323C1134.62,824.596 1132.09,844.057 1114.68,849.975C1113.04,850.535 1111.24,850.655 1109.09,850.983M1099.05,824.905C1097.15,828.498 1097.37,832.097 1100.45,834.638C1102.23,836.109 1105.06,837.071 1107.37,836.985C1111.54,836.83 1113.95,833.539 1113.79,829.775C1113.67,826.864 1112.4,822.991 1110.26,821.394C1106.29,818.433 1102.32,820.509 1099.05,824.905Z" style="fill:rgb(138,138,219);fill-rule:nonzero;"/>
    <path d="M2034,818.928C2036.03,811.624 2038.03,804.708 2039.99,797.782C2040.25,796.853 2040.53,795.861 2040.46,794.921C2040.34,793.099 2040.33,791.105 2039.52,789.586C2039.25,789.08 2036.6,789.585 2035.16,790.015C2031.79,791.018 2028.39,792.04 2025.19,793.461C2022.35,794.719 2020.94,793.645 2020.04,791.186C2015.91,779.975 2015.94,780.02 2027.58,776.017C2033.34,774.039 2038.97,771.716 2044.73,769.766C2051.7,767.407 2056.37,769.659 2057.77,776.642C2061.51,795.271 2057.66,812.385 2046.6,827.858C2046.04,828.641 2045.51,829.442 2044.97,830.239C2041.27,835.697 2038.78,836.219 2033.22,832.693C2027.97,829.361 2028.01,829.381 2031.75,823.645C2032.63,822.297 2033.23,820.762 2034,818.928Z" style="fill:rgb(179,131,250);fill-rule:nonzero;"/>
    <path d="M1345.15,907.675C1343.57,899.952 1342.16,892.555 1341.05,885.113C1340.63,882.286 1340.64,880.185 1336.67,881.668C1334.52,882.468 1332.77,881.102 1332.87,878.244C1333.02,874.425 1332.91,870.597 1332.91,866.553C1334.97,865.786 1336.89,865.072 1338.8,864.36C1334.87,850.709 1346.75,841.147 1366.95,842.286C1366.95,845.319 1367.23,848.455 1366.82,851.496C1366.64,852.759 1365.19,854.483 1363.96,854.858C1358.27,856.605 1356.85,858.244 1357.39,863.504C1365.36,864.877 1365.19,864.875 1365.07,874.787C1365.03,878.769 1363.96,880.854 1358.65,879.883C1360.08,888.418 1361.41,896.41 1362.85,904.999C1357.39,906.969 1351.69,908.799 1345.15,907.675Z" style="fill:rgb(100,98,209);fill-rule:nonzero;"/>
    <path d="M899.823,882.927C899.796,881.574 899.374,880.31 898.952,879.047C896.669,879.99 893.565,880.302 892.261,881.998C888.794,886.51 891.118,893.728 896.495,895.991C899.111,897.091 902.038,897.584 904.876,897.986C907.762,898.396 908.723,899.524 907.389,902.252C906.193,904.699 905.659,908.25 903.719,909.35C901.412,910.658 897.864,910.283 894.945,909.914C882.759,908.375 874.46,899.233 873.968,887.174C873.53,876.422 883.752,866.043 894.797,866.034C897.957,866.032 901.122,865.945 904.277,866.08C915.006,866.538 921.535,881.615 917.968,888.291C915.35,893.191 910.56,893.103 906.163,893.955C903.986,894.377 901.734,894.411 899.313,894.639C894.748,888.566 894.722,885.241 899.823,882.927Z" style="fill:rgb(100,99,209);fill-rule:nonzero;"/>
    <path d="M1388.09,880.681C1390.16,891.156 1398.17,890.03 1405.76,889.99C1405.87,891.865 1406.12,893.478 1406.02,895.069C1405.67,900.607 1402.79,903.249 1396.82,903.68C1385.75,904.479 1375.42,897.707 1372.56,887.061C1368.42,871.681 1379.24,858.865 1393.07,859.021C1395.9,859.053 1398.74,859.038 1401.57,859.048C1410.14,859.08 1417.99,872.053 1414.78,879.204C1413.79,881.396 1411.26,883.167 1409.05,884.453C1407.04,885.616 1404.5,885.861 1402.2,886.499C1396.41,888.101 1392.35,884.948 1393.19,878.976C1393.41,877.432 1395.93,876.212 1398.13,874.15C1396.39,873.526 1394.32,871.988 1392.65,872.346C1388.69,873.202 1387.28,876.269 1388.09,880.681Z" style="fill:rgb(100,99,208);fill-rule:nonzero;"/>
    <path d="M977.963,169.919C976.27,186.364 969.961,200.964 964.859,216.009C960.133,229.942 957.475,244.583 954.033,258.943C952.198,266.598 950.707,274.335 948.872,281.99C948.555,283.316 947.293,284.416 946.046,286.234C946.046,282.495 945.569,279.221 946.135,276.138C947.88,266.634 949.741,257.132 952.079,247.76C955.528,233.932 958.639,219.94 963.353,206.531C968.158,192.864 970.755,179.017 970.89,164.702C970.94,159.378 970.263,153.766 964.834,150.28C958.829,146.424 952.81,148.956 952.041,155.904C951.969,156.554 952.049,157.372 951.691,157.813C949.974,159.93 948.13,161.943 946.332,163.993C945.23,161.54 943.434,159.167 943.137,156.62C941.16,139.632 953.211,135.148 965.486,133.113C972.928,131.88 980.138,138.912 979.883,146.51C979.626,154.175 978.627,161.815 977.963,169.919Z" style="fill:rgb(157,96,244);fill-rule:nonzero;"/>
    <path d="M835.078,878.55C835.039,877.105 835.023,876.107 835.023,875.11C835.023,866.662 835.021,866.766 842.967,866.997C848.447,867.157 853.939,866.862 859.421,866.999C862.24,867.069 865.048,867.639 866.777,867.85C872.36,880.967 862.272,886.723 854.797,894.923C858.817,894.923 861.385,895.083 863.924,894.882C867.043,894.634 868.188,896.028 867.952,898.951C867.925,899.281 867.944,899.616 867.949,899.948C868.11,910.726 867.66,911.092 857.015,909.993C852.44,909.521 847.833,909.361 843.248,908.973C839.884,908.689 836.532,908.265 833.687,907.958C829.341,894.68 839.821,889.259 846.364,881.934C842.585,880.948 838.847,879.973 835.078,878.55Z" style="fill:rgb(98,97,209);fill-rule:nonzero;"/>
    <path d="M1279.14,895.635C1277.94,886.498 1276.84,877.786 1275.99,869.05C1275.43,863.338 1275.24,857.591 1274.86,851.348C1279.92,850.505 1284.77,849.544 1289.66,849.007C1290.69,848.894 1292.74,850.201 1292.88,851.08C1293.82,857.014 1294.31,863.016 1295.04,868.983C1295.97,876.543 1297.05,884.085 1297.96,891.647C1298.74,898.106 1299.46,904.575 1299.96,911.059C1300.03,911.993 1298.79,913.798 1297.98,913.903C1293.62,914.471 1289.2,914.664 1284.79,914.923C1281.28,915.13 1281.09,912.722 1280.87,910.077C1280.5,905.391 1279.88,900.725 1279.14,895.635Z" style="fill:rgb(100,99,209);fill-rule:nonzero;"/>
    <path d="M1819.18,884.981C1816.36,885.374 1814,885.771 1811.21,886.238C1810.79,881.751 1810.13,877.721 1810.2,873.706C1810.23,872.461 1812.16,870.301 1813.39,870.178C1825.77,868.93 1838.19,868.038 1850.59,866.995C1853.02,866.792 1855.41,866.291 1857.84,866.063C1865.77,865.317 1869.54,869.781 1867.81,877.684C1866.63,883.098 1864.29,888.346 1861.78,893.327C1861.04,894.798 1858.03,895.27 1855.97,895.859C1855.21,896.075 1854.19,895.202 1853.26,894.996C1845.74,893.344 1845.51,893.266 1847.21,885.63C1847.88,882.637 1847.88,882.267 1844.58,882.709C1836.31,883.813 1827.96,884.268 1819.18,884.981Z" style="fill:rgb(179,131,250);fill-rule:nonzero;"/>
    <path d="M620.006,905.74C619.245,907.116 618.57,908.753 617.733,908.841C612.697,909.369 607.624,909.541 601.648,909.885C600.991,895.574 600.345,881.496 599.665,866.683C610.491,868.867 620.596,861.126 631.044,867.035C630.203,870.836 629.383,874.388 628.634,877.955C627.178,884.883 622.294,877.937 618.783,881.293C619.158,888.579 619.588,896.931 620.006,905.74Z" style="fill:rgb(99,97,209);fill-rule:nonzero;"/>
    <path d="M1224.99,840.981C1221.38,847.715 1221.38,847.715 1213.07,844.948C1211.7,853.285 1210.46,861.551 1208.88,869.75C1208.64,870.998 1206.73,872.911 1205.69,872.847C1201.53,872.587 1197.29,872.026 1193.32,870.785C1192.13,870.41 1190.93,867.387 1191.11,865.729C1191.81,859.303 1193.02,852.929 1194.14,846.555C1195.15,840.839 1196.31,835.147 1197.5,828.882C1207.63,830.708 1218.49,828.527 1228.3,834.524C1227.17,836.637 1226.11,838.62 1224.99,840.981Z" style="fill:rgb(138,138,219);fill-rule:nonzero;"/>
    <path d="M1758,897.972C1752.67,897.963 1747.83,897.842 1743,897.985C1739.95,898.076 1738.9,896.857 1738.98,893.847C1739.42,877.984 1736.61,881.245 1751.21,881.025C1764.87,880.819 1778.54,880.981 1793.41,880.981C1793.6,885.805 1794.03,890.619 1793.78,895.395C1793.73,896.327 1791.01,897.821 1789.5,897.853C1779.17,898.072 1768.83,897.97 1758,897.972Z" style="fill:rgb(179,130,252);fill-rule:nonzero;"/>
    <path d="M1938.98,854.871C1937.19,864.182 1935.57,873.057 1933.44,881.808C1933.11,883.156 1930.57,884.467 1928.84,884.849C1926.49,885.369 1923.94,884.979 1920.91,884.979C1922.14,875.523 1923.32,866.46 1924.49,857.49C1920.04,856.507 1918.16,864.246 1913.71,859.211C1911.23,856.395 1908.58,853.717 1906.03,850.999C1912.51,843.572 1915.14,843.286 1923.69,849.279L1923.69,841.241L1938.3,841.241C1938.52,845.5 1938.75,849.947 1938.98,854.871Z" style="fill:rgb(179,132,249);fill-rule:nonzero;"/>
    <path d="M1309.64,893.41C1308.59,887.299 1307.73,881.547 1307.08,875.774C1306.79,873.248 1307.73,871.91 1310.76,871.857C1313.92,871.802 1317.08,870.868 1320.22,870.231C1323.02,869.664 1324.68,869.713 1325.16,873.512C1326.55,884.549 1328.31,895.555 1330.44,906.471C1330.96,909.096 1330.54,909.696 1328.34,910.062C1324.54,910.699 1320.74,911.725 1316.92,911.852C1315.31,911.905 1312.5,910.357 1312.2,909.073C1311.02,904.07 1310.62,898.881 1309.64,893.41Z" style="fill:rgb(101,99,209);fill-rule:nonzero;"/>
    <path d="M827.087,906.889C825.633,907.899 824.245,908.773 822.773,908.95C818.889,909.417 814.96,909.831 811.067,909.704C809.986,909.669 808.12,907.719 808.056,906.567C807.524,897.019 807.339,887.451 807.028,877.89C806.98,876.411 806.587,874.901 806.791,873.468C806.959,872.286 807.488,870.783 808.373,870.171C809.493,869.397 811.122,869.294 812.556,869.055C823.475,867.24 824.824,868.497 824.996,879.549C825.114,887.124 825.576,894.695 826.003,902.261C826.083,903.669 826.731,905.045 827.087,906.889Z" style="fill:rgb(98,97,209);fill-rule:nonzero;"/>
    <path d="M893.284,278.238C891.896,280.27 890.552,281.946 889.727,283.847C887.683,288.56 883.87,287.714 880.83,286.095C877.178,284.151 875.571,284.622 873.864,288.36C869.599,297.7 864.954,306.866 859.221,316.016C859.221,314.44 858.741,312.666 859.296,311.318C864.412,298.881 869.521,286.433 875.088,274.196C876.381,271.354 879.247,269.108 881.743,267.006C882.481,266.384 885.031,266.664 885.713,267.442C888.585,270.714 890.783,271.12 893.381,267.133C898.816,258.794 904.475,250.601 910.005,242.324C910.613,241.415 910.985,240.348 911.467,239.354C912.239,239.884 913.012,240.414 913.784,240.943C911.847,245.139 910.169,249.479 907.918,253.499C903.296,261.752 898.367,269.833 893.284,278.238Z" style="fill:rgb(156,96,243);fill-rule:nonzero;"/>
    <path d="M856.991,235.174C855.785,236.023 854.628,236.481 853.551,236.907C853.02,229.438 852.899,222.194 851.867,215.083C851.133,210.014 849.163,205.137 844.017,202.532C843.595,202.318 843.274,201.87 842.961,201.486C840.615,198.611 842.916,188.763 846.565,186.021C849.718,183.652 855.52,185.243 857.826,189.58C863.291,199.861 864.201,210.984 862.236,222.2C861.471,226.564 858.827,230.599 856.991,235.174Z" style="fill:rgb(155,91,247);fill-rule:nonzero;"/>
    <path d="M799.079,201.121C797.864,203.672 796.492,206.162 795.468,208.789C793.85,212.943 795.691,215.483 799.804,216.036C810.07,217.418 816.653,210.722 823.968,205.514C826.172,203.946 828.505,202.56 831.241,201.705C826.219,210.19 819.396,216.958 811.924,222.834C807.131,226.602 801.301,229.305 795.556,231.485C793.112,232.412 788.585,231.782 787.019,230.044C785.274,228.11 784.539,223.542 785.611,221.112C788.948,213.547 793.349,206.45 797.881,199.27C798.643,199.953 798.861,200.537 799.079,201.121Z" style="fill:rgb(155,93,244);fill-rule:nonzero;"/>
    <path d="M793.057,350.696C796.969,342.096 800.052,333.338 805.008,325.815C813.096,313.538 822.544,302.167 831.148,290.22C836.683,282.533 841.694,274.471 847.036,266.643C848.059,265.145 849.529,263.952 850.793,262.618C851.44,263.084 852.087,263.549 852.734,264.015C847.161,274.02 842.12,284.375 835.854,293.926C830.283,302.416 822.998,309.763 817.108,318.067C809.405,328.927 802.339,340.238 794.924,351.305C794.765,351.543 793.707,351.177 793.057,350.696Z" style="fill:rgb(158,99,241);fill-rule:nonzero;"/>
    <path d="M1831.33,908.76C1829.63,907.49 1828.25,906.435 1826.79,905.317C1829.2,902.34 1831.18,899.292 1833.79,896.938C1835.15,895.717 1837.91,894.808 1839.52,895.339C1845.89,897.453 1852.04,900.236 1858.31,902.675C1861.38,903.87 1861.97,905.795 1860.08,908.325C1857.17,912.22 1854.08,915.985 1850.79,920.151C1844.26,916.337 1837.94,912.656 1831.33,908.76Z" style="fill:rgb(179,132,248);fill-rule:nonzero;"/>
    <path d="M909.271,194.077C903.732,191.244 902.434,186.993 905.534,182.004C907.303,179.159 909.538,176.604 911.209,174.388C914.434,175.995 917.255,178.317 920.346,178.763C928.142,179.889 930.834,172.916 934.877,168.316C936.315,166.68 937.26,164.609 939.229,161.457C938.354,169.572 936.897,176.092 932.808,181.447C929.596,185.653 925.532,189.257 921.59,192.846C918.077,196.045 913.851,195.531 909.271,194.077Z" style="fill:rgb(155,94,245);fill-rule:nonzero;"/>
    <path d="M2061.02,805.21C2061.73,795.934 2069.18,796.485 2074.61,796.25C2084.15,795.838 2086.57,793.261 2084.02,805.932C2083.45,808.758 2083.41,811.689 2083.08,815.07C2075.72,814.334 2068.78,813.706 2061.88,812.829C2061.3,812.756 2060.64,811.02 2060.56,810.014C2060.45,808.577 2060.83,807.1 2061.02,805.21Z" style="fill:rgb(179,132,249);fill-rule:nonzero;"/>
    <path d="M1319.12,868.493C1309.79,873.127 1300.79,866.648 1301.94,857.184C1302.49,852.619 1307.33,848.158 1312.37,848.105C1318.33,848.042 1323.47,852.055 1324.04,856.957C1324.59,861.647 1323.07,865.331 1319.12,868.493Z" style="fill:rgb(101,100,207);fill-rule:nonzero;"/>
    <path d="M808.425,865.816C803.522,861.061 802.454,853.965 805.681,849.76C808.436,846.171 816.578,844.552 820.366,846.841C825.301,849.822 827.364,855.941 825.092,860.859C822.353,866.791 817.549,868.948 811.488,866.958C810.577,866.658 809.681,866.313 808.425,865.816Z" style="fill:rgb(102,100,208);fill-rule:nonzero;"/>
    <path d="M1422.87,143.973C1422.51,141.504 1422.15,139.035 1421.73,136.075C1434.2,136.075 1446.1,135.796 1457.96,136.204C1463.15,136.382 1460.87,140.375 1459.59,143.558C1446.89,143.942 1434.88,143.957 1422.87,143.973Z" style="fill:rgb(151,90,245);fill-rule:nonzero;"/>
    <path d="M661.442,320.158C663.558,319.308 665.279,318.357 667.114,318.016C668.619,317.736 671.019,317.569 671.702,318.416C674.089,321.378 676.055,324.723 677.806,328.116C678.149,328.781 676.824,330.314 676.249,331.437C676.182,331.569 676,331.654 675.856,331.732C667.016,336.512 660.907,333.277 659.382,322.865C659.272,322.117 660.494,321.173 661.442,320.158Z" style="fill:rgb(105,102,206);fill-rule:nonzero;"/>
    <path d="M647.763,328.417C646.017,326.671 643.536,325.364 643.313,323.746C642.847,320.363 643.57,316.816 643.848,312.692C647.955,313.195 651.543,313.293 654.901,314.222C656.179,314.575 657.445,316.721 657.796,318.26C658.301,320.468 658.393,322.97 657.876,325.16C657.214,327.962 656.735,331.915 651.914,329.134C650.888,328.542 649.353,328.833 647.763,328.417Z" style="fill:rgb(102,100,208);fill-rule:nonzero;"/>
    <path d="M1898.02,857.991C1900.7,856.993 1903.88,854.602 1905.16,855.37C1908.65,857.457 1911.4,860.826 1914.23,863.884C1914.45,864.127 1913.27,866.245 1912.32,866.885C1909.69,868.675 1906.83,870.146 1903.43,872.108C1900.42,868.671 1897.13,864.931 1893.53,860.822C1895.07,859.779 1896.36,858.909 1898.02,857.991Z" style="fill:rgb(179,134,247);fill-rule:nonzero;"/>
    <path d="M1423.08,144.37C1434.88,143.957 1446.89,143.942 1459.35,143.885C1459.26,144.232 1458.71,144.96 1458.16,144.959C1446.53,144.944 1434.91,144.847 1423.08,144.37Z" style="fill:rgb(179,130,252);fill-rule:nonzero;"/>
    <path d="M799.408,200.972C798.861,200.537 798.643,199.953 798.208,199.141C800.754,194.677 803.517,190.441 806.784,186.251C807.418,186.421 807.547,186.544 807.677,186.667C805.03,191.386 802.383,196.105 799.408,200.972Z" style="fill:rgb(164,127,225);fill-rule:nonzero;"/>
    <path d="M809.717,183.64C809.204,184.518 808.69,185.396 807.927,186.47C807.547,186.544 807.418,186.421 807.103,186.105C807.372,184.979 807.827,184.046 808.787,183.186C809.434,183.386 809.576,183.513 809.717,183.64Z" style="fill:rgb(164,127,225);fill-rule:nonzero;"/>
    <path d="M809.084,183.064C809.406,182.296 809.937,181.724 810.467,181.151C810.637,181.248 810.808,181.346 810.979,181.443C810.716,182.051 810.453,182.659 809.954,183.454C809.576,183.513 809.434,183.386 809.084,183.064Z" style="fill:rgb(164,127,225);fill-rule:nonzero;"/>
    <path d="M300.073,271.878C300.074,264.154 300.074,256.914 300.074,248.944C303.417,249.968 305.59,250.633 307.721,251.285L307.721,302.693C299.98,302.133 298.886,301.17 299.051,294.121C299.222,286.864 299.718,279.615 300.073,271.878Z" style="fill:rgb(99,97,203);fill-rule:nonzero;"/>
    <path d="M318.25,209.628C320.266,212.799 322.177,215.587 323.845,218.514C326.586,223.324 331.192,223.572 334.375,218.963C336.487,215.905 338.579,212.834 341.701,210.304C341.399,213.789 341.482,217.361 340.714,220.74C339.125,227.732 339.47,228.792 346.995,231.433L313.722,231.433C319.011,230.169 319.884,227.622 318.341,222.562C317.042,218.3 317.428,213.525 317.075,208.976C317.064,208.831 317.127,208.681 317.156,208.534C317.449,208.792 317.743,209.05 318.25,209.628Z" style="fill:rgb(104,102,202);fill-rule:nonzero;"/>
    <path d="M362.19,175.811C358.419,172.059 354.734,168.702 351.463,164.981C350.24,163.591 349.983,161.352 349.285,159.5C349.891,159.144 350.497,158.788 351.102,158.433C358.809,165.74 366.516,173.047 374.454,180.573C373.212,181.975 372.274,183.035 370.7,184.814C367.804,181.745 365.122,178.903 362.19,175.811Z" style="fill:rgb(118,113,208);fill-rule:nonzero;"/>
</svg>
