<?xml version="1.0"?>
<svg
  width="270"
  height="217"
  xmlns="http://www.w3.org/2000/svg"
  xmlns:svg="http://www.w3.org/2000/svg"
  xmlns:rdf="http://www.w3.org/1999/02/22-rdf-syntax-ns#"
  xmlns:dc="http://purl.org/dc/elements/1.1/"
  xmlns:cc="http://creativecommons.org/ns#"
  version="1.0"
>
  <metadata>
    <rdf:RDF>
      <rdf:Description rdf:about="Emacs-logo.svg">
        <dc:title>GNU Emacs logo</dc:title>
        <dc:creator>Original Emacs logo creator is Luis Fernandes; SVG version by Dmitry Dzhus.</dc:creator>
        <dc:date>2007</dc:date>
        <dc:description>This is an SVG version of original bitmap logo created by hand from scratch in Inkscape.</dc:description>
        <cc:license rdf:resource="http://www.gnu.org/licenses/gpl-3.0.en.html" />
      </rdf:Description>
      <rdf:Description rdf:about="emacs-logo-gruvbox-dark.svg">
        <dc:title>GNU Emacs logo (Gruvbox Theme)</dc:title>
        <dc:creator>Christian Vanderwall</dc:creator>
        <dc:date>2024</dc:date>
        <dc:description>Modified Emacs logo with Gruvbox theme colors.</dc:description>
        <cc:license rdf:resource="http://www.gnu.org/licenses/gpl-3.0.en.html" />
      </rdf:Description>
    </rdf:RDF>
  </metadata>
  <g class="layer">
    <title>Layer 1</title>
    <g fill="#000000" id="g2240">
      <path
        d="m171.85,42.31c-1.59,1.04 -7.71,13.98 -7.8,15.56c11.86,19.58 33.8,-13.45 37.77,-28.55c0,0 -10.38,18.2 -19.78,18.55c-11.01,0.4 -8.59,-6.59 -10.19,-5.56z"
        fill="#3c3836"
        fill-rule="evenodd"
        id="path2242"
        stroke-miterlimit="4"
        stroke-width="0.13"
      />
      <path
        d="m17.74,20.1l-6.66,16.73c0,0 4.08,9.73 10.68,10.35c15.13,1.42 31.96,-27.22 36.7,-27.08c4.75,0.14 14.36,7.66 19.48,18.16c6.73,-13.16 14.92,-19.01 28.5,-9.25c7.9,5.67 24.42,28.13 34.31,29.23c10.7,1.2 19.9,-8.99 24.33,-27.61c-6.13,7.95 -8.63,11.52 -14.78,11.92c-6.35,0.42 -5.79,1.68 -27.96,-21.34c-22.18,-23.01 -32.64,-11.99 -39.19,-2.23c-1.47,-1.6 -8.88,-13.62 -17.82,-13.52c-6.33,0.06 -16.89,15.05 -23.2,20.5c-6.55,5.65 -10.48,6.65 -12.87,6.67c-3.69,0.05 -8.14,-1.84 -11.52,-12.53z"
        fill="#3c3836"
        fill-rule="evenodd"
        id="path2244"
        stroke-linejoin="round"
        stroke-miterlimit="4"
        stroke-width="0.13"
      />
      <path
        d="m71.88,37.96c-16.7,20.31 -17.37,20.8 -26.15,35.24c-8.78,14.44 -11.11,24.05 -6.99,27.63c4.15,3.6 11.55,3.8 20.61,-2.89c12.61,-9.66 29.43,-23.45 34.05,-35.19c1.2,-3.05 -20.66,17.64 -29.43,22.78c-5.26,3.08 -12.34,3.89 -16.14,0.21c-7.76,-7.51 26.96,-44.63 24.05,-47.78z"
        fill="#3c3836"
        fill-rule="evenodd"
        id="path2246"
        stroke-miterlimit="4"
        stroke-width="0.13"
      />
      <path
        d="m96.68,69.05c-0.04,-1.64 8.43,-14.16 9.9,-14.64c21.24,14.28 10.18,51.04 3.21,54.25c0,0 1.22,-15.76 -1.96,-25.66c-3.17,-9.91 -11.12,-12.31 -11.15,-13.95z"
        fill="#3c3836"
        fill-rule="evenodd"
        id="path2248"
        stroke-miterlimit="4"
        stroke-width="0.13"
      />
      <path
        d="m207.29,37.13c-2.01,-8.53 7.11,-31.6 18.74,-31.6c29.02,0 14.93,46.28 9.27,63.38c-13.81,35.77 -22.56,89.25 -23.15,93.86c-0.73,5.61 -9.4,20.66 -5.02,-4.19c4.38,-24.85 12.25,-53.85 21.7,-87.69c4.96,-17.75 10.99,-49.4 -5.77,-49.45c-8.55,-0.11 -8.07,5.93 -15.77,15.69z"
        fill="#3c3836"
        fill-rule="evenodd"
        id="path2250"
        stroke-miterlimit="4"
        stroke-width="0.13"
      />
    </g>
    <g id="g2233">
      <path
        d="m176.58,37.97c-1.59,1.04 -7.71,13.98 -7.8,15.56c11.86,19.58 33.8,-13.45 37.77,-28.55c0,0 -10.38,18.2 -19.78,18.55c-11.01,0.4 -8.59,-6.59 -10.19,-5.56z"
        fill="#cc241d"
        fill-rule="evenodd"
        id="path9706"
        stroke-miterlimit="4"
        stroke-width="0.13"
      />
      <path
        d="m22.47,15.76l-6.66,16.73c0,0 4.08,9.73 10.68,10.35c15.13,1.42 31.96,-27.22 36.7,-27.08c4.75,0.14 14.36,7.66 19.48,18.16c6.73,-13.16 14.92,-19.01 28.5,-9.25c7.9,5.67 24.42,28.13 34.31,29.23c10.7,1.2 19.9,-8.99 24.33,-27.61c-6.13,7.95 -8.63,11.52 -14.78,11.92c-6.35,0.42 -5.79,1.68 -27.96,-21.34c-22.18,-23.01 -32.64,-11.99 -39.19,-2.23c-1.47,-1.6 -8.88,-13.62 -17.82,-13.52c-6.33,0.06 -16.89,15.05 -23.2,20.5c-6.55,5.65 -10.48,6.65 -12.87,6.67c-3.69,0.05 -8.14,-1.84 -11.52,-12.53z"
        fill="#cc241d"
        fill-rule="evenodd"
        id="path7673"
        stroke-linejoin="round"
        stroke-miterlimit="4"
        stroke-width="0.13"
      />
      <path
        d="m76.61,33.62c-16.7,20.31 -17.37,20.8 -26.15,35.24c-8.78,14.44 -11.11,24.05 -6.99,27.63c4.15,3.6 11.55,3.8 20.61,-2.89c12.61,-9.66 29.43,-23.45 34.05,-35.19c1.2,-3.05 -20.66,17.64 -29.43,22.78c-5.26,3.08 -12.34,3.89 -16.14,0.21c-7.76,-7.51 26.96,-44.63 24.05,-47.78z"
        fill="#cc241d"
        fill-rule="evenodd"
        id="path8693"
        stroke-miterlimit="4"
        stroke-width="0.13"
      />
      <path
        d="m101.41,64.71c-0.04,-1.64 8.43,-14.16 9.9,-14.64c21.24,14.28 10.18,51.04 3.21,54.25c0,0 1.22,-15.76 -1.96,-25.66c-3.17,-9.91 -11.12,-12.31 -11.15,-13.95z"
        fill="#cc241d"
        fill-rule="evenodd"
        id="path9704"
        stroke-miterlimit="4"
        stroke-width="0.13"
      />
      <path
        d="m212.02,32.79c-2.01,-8.53 7.11,-31.6 18.74,-31.6c29.02,0 14.93,46.28 9.27,63.38c-13.81,35.77 -22.56,89.25 -23.15,93.86c-0.73,5.61 -9.4,20.66 -5.02,-4.19c4.38,-24.85 12.25,-53.85 21.7,-87.69c4.96,-17.75 10.99,-49.4 -5.77,-49.45c-8.55,-0.11 -8.07,5.93 -15.77,15.69z"
        fill="#cc241d"
        fill-rule="evenodd"
        id="path2171"
        stroke-miterlimit="4"
        stroke-width="0.13"
      />
    </g>
    <g fill="#000000" id="g2256">
      <path
        d="m80.71,156.89c-12.07,3.12 -29.39,39.69 -30.15,45.64c2.79,0.7 61.28,-67.94 30.56,-4.33c22.27,-18.85 44.66,-52.77 27.5,-9.86c-4.05,10.14 15.8,10.14 35.17,-10.98c-5.08,3.25 -30.74,18.65 -16.62,-13.36c7.42,-16.82 -17.13,-0.2 -23.98,6.23c1.43,-6.51 6.57,-18.06 -1.75,-14.86c-8.33,3.2 -17.31,9.71 -32.68,24.14c8.83,-14.22 9.28,-15.71 11.95,-22.62z"
        fill="#3c3836"
        fill-rule="evenodd"
        id="path2258"
        stroke-width="0.13"
      />
      <path
        d="m249.67,192.9c14.37,-1.98 35.51,-23.84 6.36,-25.2c-32.03,-1.49 7.67,-12.83 7.67,-12.83c-17.29,-1.12 -48.73,18.21 -23.08,15.27c25.83,-2.98 26.13,20.43 -0.56,20.39c-3.73,0 -2.58,-3.73 -2.58,-3.73l-10.88,4.82c10.3,2.95 14.93,2.39 23.07,1.28z"
        fill="#3c3836"
        fill-rule="evenodd"
        id="path2260"
        stroke-width="1px"
      />
      <path
        d="m36.24,153.05c-15.27,8.39 -41.7,42.29 -29.16,50.36c11.72,7.53 62.68,-28.73 71.41,-45.26c-73.37,57.77 -63.6,21.14 -50.66,8.27c8.8,-10.72 36.99,-18.34 44.47,-33.51c-38.69,20.77 -41.07,2.99 -8.84,-17.7c5.93,-3.79 45.11,-21.78 15.13,3.46c17.73,-8.25 32.76,-21.01 21.17,-23.51c-15.06,-3.25 -38.74,15.16 -50.85,25.04c-7.12,5.81 -36.22,29.57 -12.67,32.85z"
        fill="#3c3836"
        fill-rule="evenodd"
        id="path2262"
        stroke-width="1px"
      />
      <g fill="#000000" id="g2264">
        <path
          d="m154.34,185.94c-39.12,31.03 -20.08,-16.96 26.49,-31.6c-35.58,24.17 -40.25,34.66 -26.49,31.6z"
          fill="#3c3836"
          fill-rule="evenodd"
          id="path2266"
          stroke-width="1px"
        />
        <path
          d="m197.13,181.36c-40.17,32.49 -46.01,-4.87 -12.01,-21.87c-17.16,26.83 -0.7,22.56 12.01,21.87z"
          fill="#3c3836"
          fill-rule="evenodd"
          id="path2268"
          stroke-width="1px"
        />
      </g>
      <path
        d="m230.19,183.36c-43.8,32.08 -50.89,-17.69 7.94,-28.69c-48.96,28.91 -17.87,33.29 -7.94,28.69z"
        fill="#3c3836"
        fill-rule="evenodd"
        id="path2270"
        stroke-width="1px"
      />
    </g>
    <g fill="#2076c1" id="g2201">
      <path
        d="m79.89,152.5c-12.07,3.12 -29.39,39.69 -30.15,45.64c2.79,0.7 61.28,-67.94 30.56,-4.33c22.27,-18.85 44.66,-52.77 27.5,-9.86c-4.05,10.14 15.8,10.14 35.17,-10.98c-5.08,3.25 -30.74,18.65 -16.62,-13.36c7.42,-16.82 -17.13,-0.2 -23.98,6.23c1.43,-6.51 6.57,-18.06 -1.75,-14.86c-8.33,3.2 -17.31,9.71 -32.68,24.14c8.83,-14.22 9.28,-15.71 11.95,-22.62z"
        fill="#458588"
        fill-rule="evenodd"
        id="path2173"
        stroke-width="1px"
      />
      <path
        d="m248.85,188.51c14.37,-1.98 35.51,-23.84 6.36,-25.2c-32.03,-1.49 7.67,-12.83 7.67,-12.83c-17.29,-1.12 -48.73,18.21 -23.08,15.27c25.83,-2.98 26.13,20.43 -0.56,20.39c-3.73,0 -2.58,-3.73 -2.58,-3.73l-10.88,4.82c10.3,2.95 14.93,2.39 23.07,1.28z"
        fill="#458588"
        fill-rule="evenodd"
        id="path2183"
        stroke-width="1px"
      />
      <path
        d="m35.42,148.66c-15.27,8.39 -41.7,42.29 -29.16,50.36c11.72,7.53 62.68,-28.73 71.41,-45.26c-73.37,57.77 -63.6,21.14 -50.66,8.27c8.8,-10.72 36.99,-18.34 44.47,-33.51c-38.69,20.77 -41.07,2.99 -8.84,-17.7c5.93,-3.79 45.11,-21.78 15.13,3.46c17.73,-8.25 32.76,-21.01 21.17,-23.51c-15.06,-3.25 -38.74,15.16 -50.85,25.04c-7.12,5.81 -36.22,29.57 -12.67,32.85z"
        fill="#458588"
        fill-rule="evenodd"
        id="path6069"
        stroke-width="1px"
      />
      <g fill="#2076c1" id="g2188">
        <path
          d="m153.52,181.55c-39.12,31.03 -20.08,-16.96 26.49,-31.6c-35.58,24.17 -40.25,34.66 -26.49,31.6z"
          fill="#458588"
          fill-rule="evenodd"
          id="path2175"
          stroke-width="1px"
        />
        <path
          d="m196.31,176.97c-40.17,32.49 -46.01,-4.87 -12.01,-21.87c-17.16,26.83 -0.7,22.56 12.01,21.87z"
          fill="#458588"
          fill-rule="evenodd"
          id="path2177"
          stroke-width="1px"
        />
      </g>
      <path
        d="m229.37,178.97c-43.8,32.08 -50.89,-17.69 7.94,-28.69c-48.96,28.91 -17.87,33.29 -7.94,28.69z"
        fill="#458588"
        fill-rule="evenodd"
        id="path2179"
        stroke-width="1px"
      />
    </g>
    <path
      d="m124.19,189.84c-4.99,-2.5 24.08,-70.69 28.1,-47.73c1.81,10.29 18.44,-18.54 18.44,-18.54c0,0 13.07,-23.77 13.71,-21.69c3.04,9.83 -35.43,73.54 -38.16,57.49c-2.77,-16.23 -21.5,30.76 -22.09,30.47z"
      fill="#3c3836"
      fill-rule="evenodd"
      id="path2252"
      stroke-miterlimit="4"
      stroke-width="0.13"
    />
    <path
      d="m127.37,186.63c-4.99,-2.5 24.08,-70.69 28.1,-47.73c1.81,10.29 18.44,-18.54 18.44,-18.54c0,0 13.07,-23.77 13.71,-21.7c3.05,9.84 -35.43,73.55 -38.16,57.5c-2.76,-16.23 -21.5,30.76 -22.09,30.47z"
      fill="#cc241d"
      fill-rule="evenodd"
      id="path3158"
      stroke-miterlimit="4"
      stroke-width="0.13"
    />
    <path
      d="m56.31,214.04c0,0 -0.24,-14.59 24.46,-45.56c19.91,-24.96 42.99,-60.94 42.99,-60.94c0,0 -3.78,18.98 -20.6,40.65c-19.63,25.3 -46.85,65.85 -46.85,65.85z"
      fill="#3c3836"
      fill-rule="evenodd"
      id="path2254"
      stroke-miterlimit="4"
      stroke-width="0.13"
      transform="matrix(1, 0, 0, 1, 0, 0)"
    />
    <path
      d="m59.52,215.22c0,0 -0.24,-14.59 24.46,-45.55c19.91,-24.96 42.99,-60.95 42.99,-60.95c0,0 -3.78,18.98 -20.6,40.65c-19.63,25.3 -46.85,65.85 -46.85,65.85z"
      fill="#cc241d"
      fill-rule="evenodd"
      id="path4129"
      stroke-miterlimit="4"
      stroke-width="0.13"
    />
  </g>
</svg>
